<svg xmlns="http://www.w3.org/2000/svg" xmlns:xlink="http://www.w3.org/1999/xlink" class="svg-logo" width="180px" viewBox="0 0 2618 512">
  <defs>
    <linearGradient id="linear-gradient" x1="0.5" x2="0.5" y2="1" gradientUnits="objectBoundingBox">
      <stop offset="0" stop-color="#0ba760"/>
      <stop offset="1" stop-color="#0073b8"/>
    </linearGradient>
  </defs>
  <g id="Group_1" data-name="Group 1" transform="translate(-9203 517)">
    <path id="meteor-shower" d="M73.621,466.656,45.344,438.379,206.8,276.922,235.078,305.2ZM512,28.277,483.723,0,293.278,190.445l28.277,28.277ZM20,472.011A19.994,19.994,0,1,0,39.988,492,19.993,19.993,0,0,0,20,472.011Zm243.93-241.934a19.994,19.994,0,1,0,20,20A19.993,19.993,0,0,0,263.926,230.077ZM372.063,28.253,343.739.023,45.321,299.44l28.324,28.227ZM20,333.05a19.994,19.994,0,1,0,19.992,19.992A19.993,19.993,0,0,0,20,333.05ZM512,172.234l-28.277-28.273L189.306,438.379l28.277,28.277ZM163.954,472.011a19.994,19.994,0,1,0,20,19.992A19.99,19.99,0,0,0,163.954,472.011ZM512,308.2l-28.277-28.277-94.473,94.473,28.277,28.277ZM363.9,408.026a20,20,0,1,0,20,20A19.993,19.993,0,0,0,363.9,408.026ZM233.079,29.276,204.8,1,74.837,130.964l28.277,28.273ZM48.989,164.1a19.994,19.994,0,1,0,19.992,19.992A19.993,19.993,0,0,0,48.989,164.1Zm0,0" transform="translate(9203 -517)" fill="url(#linear-gradient)"/>
    <text id="BITMETEOR" transform="translate(9854 -115)" fill="#fff" font-size="352" font-family="SegoeUI-Bold, Segoe UI" font-weight="700"><tspan x="0" y="0">BITMETEOR</tspan></text>
  </g>
</svg>
